<svg width="851" height="812" viewBox="0 0 851 812" fill="none" xmlns="http://www.w3.org/2000/svg">
<g clip-path="url(#clip0_38_150)">
<path d="M692.279 235.584L461.295 84.5741C443.071 72.6598 418.639 77.7748 406.725 95.9989L169.424 458.973C157.51 477.197 162.625 501.629 180.849 513.543L411.832 664.553C430.056 676.467 454.488 671.352 466.403 653.128L703.704 290.154C715.618 271.93 710.503 247.498 692.279 235.584Z" stroke="#333333" stroke-width="32" stroke-linecap="round" stroke-linejoin="round"/>
<path d="M434.659 161.362L632.634 290.793L589.489 356.788L391.513 227.358L434.659 161.362Z" stroke="#333333" stroke-width="32" stroke-linecap="round" stroke-linejoin="round"/>
<path d="M335.034 331.737C348.702 340.673 367.026 336.837 375.962 323.169C384.897 309.5 381.061 291.176 367.393 282.241C353.725 273.305 335.401 277.141 326.465 290.809C317.529 304.477 321.366 322.801 335.034 331.737Z" fill="#333333"/>
<path d="M425.777 391.062C439.445 399.998 457.769 396.162 466.705 382.494C475.641 368.826 471.804 350.502 458.136 341.566C444.468 332.63 426.144 336.466 417.209 350.135C408.273 363.803 412.109 382.127 425.777 391.062Z" fill="#333333"/>
<path d="M516.521 450.388C530.189 459.323 548.513 455.487 557.449 441.819C566.384 428.151 562.548 409.827 548.88 400.891C535.212 391.955 516.888 395.792 507.952 409.46C499.016 423.128 502.853 441.452 516.521 450.388Z" fill="#333333"/>
<path d="M281.102 414.231C294.77 423.167 313.094 419.331 322.029 405.663C330.965 391.995 327.129 373.671 313.461 364.735C299.793 355.799 281.469 359.635 272.533 373.303C263.597 386.971 267.434 405.295 281.102 414.231Z" fill="#333333"/>
<path d="M371.845 473.556C385.513 482.492 403.837 478.656 412.773 464.988C421.709 451.32 417.873 432.996 404.205 424.06C390.536 415.124 372.212 418.961 363.277 432.629C354.341 446.297 358.177 464.621 371.845 473.556Z" fill="#333333"/>
<path d="M227.17 496.725C240.838 505.661 259.162 501.825 268.098 488.157C277.033 474.489 273.197 456.165 259.529 447.229C245.861 438.293 227.537 442.129 218.601 455.797C209.665 469.466 213.502 487.79 227.17 496.725Z" fill="#333333"/>
<path d="M317.913 556.051C331.581 564.986 349.905 561.15 358.841 547.482C367.777 533.814 363.94 515.49 350.272 506.554C336.604 497.618 318.28 501.455 309.345 515.123C300.409 528.791 304.245 547.115 317.913 556.051Z" fill="#333333"/>
<path d="M503.517 524.313C512.452 510.645 508.616 492.321 494.948 483.385C481.28 474.449 462.956 478.286 454.02 491.954L400.088 574.448C391.152 588.116 394.989 606.44 408.657 615.376C422.325 624.312 440.649 620.475 449.585 606.807L503.517 524.313Z" fill="#333333"/>
</g>
<defs>
<clipPath id="clip0_38_150">
<rect width="630.78" height="630.78" fill="white" transform="translate(345.165 -62) rotate(33.1754)"/>
</clipPath>
</defs>
</svg>
