<svg width="259" height="14" viewBox="0 0 259 14" fill="none" xmlns="http://www.w3.org/2000/svg">
<path d="M249.813 10.6751C221.007 10.0865 192.218 9.24568 163.412 8.94538C121.527 8.51294 79.6102 7.93638 37.8394 11.1436C29.3748 11.7923 20.9101 12.3929 12.4617 13.0656C5.83301 13.5821 1.70631 11.9365 0.292827 8.11661C-0.893198 4.90938 1.62501 2.0745 6.01167 2.68711C21.2025 4.78923 36.036 1.70214 51.0482 1.42586C79.2041 0.897324 107.36 0.236617 135.532 0.0324106C156.101 -0.111735 176.702 0.24864 197.27 0.64504C214.281 0.981379 231.275 1.70208 248.286 2.26665C249.277 2.30268 250.333 2.32675 251.226 2.61504C254.736 3.7562 260.065 4.40481 258.814 8.05649C258.213 9.79825 253.436 10.7713 250.544 12.0806C250.3 11.6121 250.073 11.1436 249.829 10.6751H249.813Z" fill="#9700FF"/>
</svg>
